<?xml version="1.0" standalone="no"?>
<!DOCTYPE svg PUBLIC "-//W3C//DTD SVG 20010904//EN"
 "http://www.w3.org/TR/2001/REC-SVG-20010904/DTD/svg10.dtd">
<svg version="1.0" xmlns="http://www.w3.org/2000/svg"
 width="1639.000000pt" height="906.000000pt" viewBox="0 0 1639.000000 906.000000"
 preserveAspectRatio="xMidYMid meet">

<g transform="translate(0.000000,906.000000) scale(0.100000,-0.100000)"
fill="#000000" stroke="none">
<path d="M7537 9040 c-74 -59 -51 -190 39 -220 43 -15 134 -4 134 15 0 11 -5
11 -27 -1 -36 -18 -67 -18 -102 1 -69 35 -67 180 3 211 31 13 31 13 5 14 -15
0 -38 -9 -52 -20z"/>
<path d="M7670 9053 c8 -3 21 -12 28 -21 10 -14 12 -13 12 6 0 18 -6 22 -27
21 -16 0 -21 -3 -13 -6z"/>
<path d="M9040 8941 c0 -105 -2 -120 -17 -125 -10 -2 25 -4 78 -3 113 2 139
16 139 74 0 26 -6 37 -29 51 -28 17 -29 19 -10 30 21 14 26 61 7 80 -7 7 -43
12 -90 12 l-78 0 0 -119z m140 90 c10 -21 4 -51 -14 -63 -6 -4 -28 -8 -48 -8
l-38 0 0 45 0 45 45 0 c34 0 47 -5 55 -19z m11 -112 c14 -14 18 -27 13 -42
-11 -38 -25 -47 -75 -47 l-49 0 0 55 0 55 45 0 c32 0 51 -6 66 -21z"/>
<path d="M9700 8941 c0 -86 -3 -121 -12 -124 -7 -3 5 -5 27 -5 22 0 34 2 28 5
-19 7 -16 63 5 87 16 20 16 20 0 7 -17 -13 -18 -8 -18 68 0 65 -3 81 -15 81
-12 0 -15 -20 -15 -119z"/>
<path d="M8850 9010 c-8 -5 -34 -10 -57 -10 -32 0 -46 -5 -57 -22 -20 -28 -20
-58 -2 -84 13 -16 12 -21 -1 -36 -13 -15 -14 -20 -3 -33 10 -12 10 -19 2 -27
-19 -19 -14 -56 9 -69 33 -17 110 -5 131 21 40 49 17 83 -59 90 -66 6 -75 22
-18 31 52 9 79 42 70 87 -4 20 -2 39 6 48 13 16 1 18 -21 4z m-22 -67 c2 -33
-1 -44 -16 -52 -28 -15 -55 8 -54 47 1 43 9 54 40 50 24 -3 27 -8 30 -45z m29
-149 c12 -31 -11 -49 -63 -49 -39 0 -49 4 -52 18 -6 30 17 47 65 47 31 0 45
-5 50 -16z"/>
<path d="M8518 8993 c8 -3 12 -30 12 -88 0 -57 -4 -85 -12 -88 -7 -3 5 -5 27
-5 22 0 34 2 28 5 -9 3 -13 30 -13 84 l0 79 34 0 c41 0 46 -11 46 -90 0 -46
-4 -61 -17 -69 -14 -8 -8 -10 27 -10 25 0 39 3 33 6 -9 3 -13 30 -13 83 0 50
-4 81 -12 88 -7 5 -44 10 -83 9 -38 0 -64 -2 -57 -4z"/>
<path d="M9306 8981 c-37 -41 -28 -138 15 -161 28 -16 75 -12 99 8 34 27 39
108 10 145 -17 22 -29 27 -64 27 -29 0 -48 -6 -60 -19z m92 -3 c7 -7 12 -37
12 -68 0 -63 -11 -80 -51 -80 -20 0 -30 6 -35 23 -11 34 -7 106 6 122 15 18
52 19 68 3z"/>
<path d="M9506 8981 c-23 -26 -31 -84 -16 -121 20 -48 62 -62 114 -39 47 22
59 117 19 161 -22 25 -94 25 -117 -1z m95 -7 c7 -8 13 -38 13 -66 1 -40 -3
-53 -21 -68 -27 -22 -60 -16 -69 13 -10 32 -6 108 7 123 15 19 53 18 70 -2z"/>
<path d="M2464 8596 c-19 -8 -33 -23 -36 -37 -3 -13 -38 -181 -77 -374 -39
-192 -75 -361 -80 -375 -6 -20 -16 -26 -47 -30 l-39 -5 -6 -360 c-4 -198 -7
-1724 -8 -3391 -1 -3347 -6 -3096 62 -3162 19 -18 56 -40 82 -48 73 -21 12637
-21 12710 0 26 8 63 30 82 48 68 66 63 -188 63 3198 0 3386 5 3132 -63 3198
-69 67 264 62 -4054 62 l-3923 0 0 60 0 60 -380 0 -380 0 0 -60 0 -60 -1709 0
-1708 0 -5 78 c-3 42 -3 139 0 214 6 153 2 163 -54 174 -18 3 -38 11 -43 18
-6 7 -28 97 -51 201 -48 223 -89 389 -125 502 -25 79 -27 83 -63 93 -50 14
-111 12 -148 -4z m12598 -1318 c22 -13 51 -41 64 -64 l24 -41 0 -3113 0 -3113
-24 -41 c-13 -23 -42 -51 -64 -64 l-40 -22 -6352 0 -6352 0 -40 22 c-22 13
-51 41 -64 64 l-24 41 0 3114 0 3114 24 39 c13 21 41 49 62 62 l39 24 6354 0
6353 0 40 -22z"/>
<path d="M2595 7035 c-24 -23 -25 -29 -25 -165 0 -136 1 -142 25 -165 24 -24
27 -25 185 -25 158 0 161 1 185 25 24 23 25 29 25 165 0 136 -1 142 -25 165
-24 24 -27 25 -185 25 -158 0 -161 -1 -185 -25z m148 -92 c-21 -4 -23 -10 -23
-74 l0 -70 63 3 62 3 0 65 c0 63 -1 65 -25 65 -21 0 -25 -5 -28 -34 -3 -31 -2
-33 12 -21 24 19 32 4 11 -20 -22 -24 -33 -25 -57 -3 -22 19 -24 37 -4 30 11
-4 16 3 18 26 3 29 6 32 42 35 48 4 56 -7 56 -75 0 -82 -1 -83 -91 -83 l-79 0
0 80 0 80 33 -1 c23 -1 26 -3 10 -6z"/>
<path d="M3085 7035 c-24 -23 -25 -29 -25 -165 0 -136 1 -142 25 -165 24 -24
27 -25 185 -25 158 0 161 1 185 25 24 23 25 29 25 165 0 136 -1 142 -25 165
-24 24 -27 25 -185 25 -158 0 -161 -1 -185 -25z m235 -115 c0 -11 7 -20 15
-20 10 0 15 -11 15 -35 0 -24 -5 -35 -15 -35 -8 0 -15 -7 -15 -15 0 -26 -87
-20 -116 8 -26 24 -31 62 -11 74 8 4 16 16 20 26 5 13 18 17 57 17 43 0 50 -3
50 -20z"/>
<path d="M3237 6923 c-15 -15 -5 -23 28 -23 24 0 35 5 35 15 0 15 -50 22 -63
8z"/>
<path d="M3215 6880 c3 -5 1 -10 -4 -10 -6 0 -11 -5 -11 -12 0 -9 3 -9 12 0 7
7 33 12 59 12 37 0 49 -4 52 -17 3 -11 5 -7 6 10 1 27 0 27 -60 27 -37 0 -58
-4 -54 -10z"/>
<path d="M3234 6845 c-9 -22 4 -35 37 -35 24 0 29 4 29 25 0 21 -5 25 -30 25
-18 0 -33 -6 -36 -15z"/>
<path d="M3560 7040 c-18 -18 -20 -33 -20 -170 0 -202 -13 -190 210 -190 223
0 210 -12 210 190 0 202 13 190 -210 190 -157 0 -172 -2 -190 -20z m250 -115
c72 -77 -41 -185 -115 -110 -16 15 -25 36 -25 55 0 71 91 107 140 55z"/>
<path d="M3730 6933 c-23 -8 -40 -34 -40 -63 0 -34 18 -57 52 -65 21 -5 33 -1
52 19 33 32 33 60 1 91 -24 25 -36 28 -65 18z m40 -38 c7 9 15 13 18 10 3 -2
-1 -11 -8 -20 -10 -12 -10 -18 0 -30 7 -9 11 -18 8 -20 -3 -3 -11 1 -18 10
-12 14 -15 14 -31 -1 -21 -19 -27 -6 -7 14 9 9 9 15 0 24 -20 20 -14 33 7 14
16 -15 19 -15 31 -1z"/>
<path d="M9715 7035 c-24 -23 -25 -29 -25 -165 0 -136 1 -142 25 -165 24 -24
27 -25 185 -25 158 0 161 1 185 25 l25 24 25 -24 c24 -24 27 -25 185 -25 158
0 161 1 185 25 l25 24 25 -24 c24 -24 27 -25 185 -25 158 0 161 1 185 25 24
23 25 29 25 165 0 136 -1 142 -25 165 -24 24 -27 25 -185 25 -158 0 -161 -1
-185 -25 l-25 -24 -25 24 c-24 24 -27 25 -185 25 -158 0 -161 -1 -185 -25
l-25 -24 -25 24 c-24 24 -27 25 -185 25 -158 0 -161 -1 -185 -25z m270 -165
l0 -55 -82 -3 -83 -3 0 61 0 61 83 -3 82 -3 0 -55z m420 0 l0 -55 -82 -3 -83
-3 0 61 0 61 83 -3 82 -3 0 -55z m420 0 l0 -55 -82 -3 -83 -3 0 61 0 61 83 -3
82 -3 0 -55z"/>
<path d="M9840 6888 c0 -29 3 -33 28 -35 15 -1 35 5 44 14 13 12 21 12 38 3
20 -11 21 -9 18 17 -3 27 -5 28 -65 31 l-63 3 0 -33z m43 7 c1 -5 -6 -11 -15
-13 -11 -2 -18 3 -18 13 0 17 30 18 33 0z"/>
<path d="M10260 6888 c0 -29 3 -33 28 -35 15 -1 35 5 44 14 13 12 21 12 38 3
20 -11 21 -9 18 17 -3 27 -5 28 -65 31 l-63 3 0 -33z m43 7 c1 -5 -6 -11 -15
-13 -11 -2 -18 3 -18 13 0 17 30 18 33 0z"/>
<path d="M10680 6888 c0 -29 3 -33 28 -35 15 -1 35 5 44 14 13 12 21 12 38 3
20 -11 21 -9 18 17 -3 27 -5 28 -65 31 l-63 3 0 -33z m43 7 c1 -5 -6 -11 -15
-13 -11 -2 -18 3 -18 13 0 17 30 18 33 0z"/>
<path d="M4594 6275 c-16 -12 -101 -14 -571 -15 -488 0 -553 -2 -567 -16 -9
-8 -16 -19 -16 -24 0 -5 7 -16 16 -24 14 -14 79 -16 567 -16 470 -1 555 -3
571 -15 47 -36 116 -3 116 55 0 58 -69 91 -116 55z"/>
<path d="M3150 6250 c0 -13 -7 -20 -20 -20 -23 0 -40 -33 -32 -62 5 -19 44
-34 61 -23 14 8 14 125 1 125 -5 0 -10 -9 -10 -20z m-2 -68 c2 -18 1 -32 -2
-32 -19 0 -36 16 -36 34 0 48 33 46 38 -2z"/>
<path d="M3263 6205 c0 -54 1 -61 6 -30 4 26 11 40 21 40 10 0 17 -14 21 -40
l7 -40 -2 45 c-1 38 -4 45 -23 48 -13 2 -23 12 -26 25 -2 12 -4 -9 -4 -48z"/>
<path d="M2907 6228 c17 -87 31 -102 47 -49 5 17 12 31 16 31 4 0 11 -14 16
-31 16 -55 29 -42 47 49 4 17 3 32 -2 32 -5 0 -12 -20 -16 -45 -7 -50 -20 -52
-30 -5 -4 17 -10 30 -15 30 -5 0 -11 -13 -15 -30 -10 -47 -23 -45 -30 5 -4 25
-11 45 -16 45 -5 0 -6 -15 -2 -32z"/>
<path d="M3190 6211 c0 -54 8 -71 34 -71 19 1 19 2 4 11 -11 6 -18 22 -18 39
0 19 6 30 18 33 16 4 16 5 0 6 -10 0 -18 6 -18 11 0 6 -4 10 -10 10 -5 0 -10
-18 -10 -39z"/>
<path d="M3063 6185 c0 -27 2 -38 4 -22 2 15 2 37 0 50 -2 12 -4 0 -4 -28z"/>
<path d="M4104 5755 c-16 -12 -68 -14 -291 -15 -233 0 -274 -2 -287 -16 -9 -8
-16 -19 -16 -24 0 -5 7 -16 16 -24 13 -14 54 -16 287 -16 223 -1 275 -3 291
-15 47 -36 116 -3 116 55 0 58 -69 91 -116 55z"/>
<path d="M3220 5740 c0 -5 5 -10 10 -10 6 0 10 5 10 10 0 6 -4 10 -10 10 -5 0
-10 -4 -10 -10z"/>
<path d="M2866 5727 c-13 -9 -17 -23 -14 -52 2 -33 8 -41 30 -49 54 -19 93 58
50 97 -22 20 -42 21 -66 4z m52 -9 c23 -23 9 -88 -19 -88 -14 0 -39 32 -39 50
0 18 25 50 39 50 4 0 12 -5 19 -12z"/>
<path d="M3272 5680 c3 -46 6 -55 23 -58 18 -2 18 -2 3 8 -11 6 -18 23 -18 40
0 22 5 30 18 31 13 0 14 2 2 6 -8 3 -18 11 -23 17 -4 6 -6 -14 -5 -44z"/>
<path d="M2977 5703 c-11 -10 -8 -113 3 -113 6 0 10 7 10 15 0 8 9 15 20 15
35 0 46 62 16 82 -14 10 -41 10 -49 1z m41 -12 c18 -11 11 -56 -8 -56 -10 0
-16 12 -18 33 -3 33 3 38 26 23z"/>
<path d="M3088 5700 c12 -5 22 -14 22 -19 0 -5 -10 -11 -22 -13 -35 -5 -31
-42 5 -46 27 -3 28 -2 25 40 -3 38 -6 43 -28 45 -25 3 -25 3 -2 -7z m22 -55
c0 -8 -6 -15 -14 -15 -17 0 -28 14 -19 24 12 12 33 6 33 -9z"/>
<path d="M3162 5698 c-28 -28 -7 -79 33 -77 19 0 19 1 -3 9 -34 14 -39 40 -13
62 15 11 18 18 9 18 -8 0 -19 -5 -26 -12z"/>
<path d="M3220 5665 c0 -25 5 -45 10 -45 6 0 10 20 10 45 0 25 -4 45 -10 45
-5 0 -10 -20 -10 -45z"/>
<path d="M3320 5705 c0 -2 7 -23 17 -46 16 -40 15 -42 -3 -56 -19 -15 -19 -15
1 -11 20 3 60 90 52 112 -3 6 -7 3 -11 -6 -3 -10 -9 -26 -12 -35 -5 -15 -9
-12 -20 15 -12 28 -24 42 -24 27z"/>
<path d="M2690 5267 c-46 -23 -51 -48 -48 -239 3 -170 4 -179 26 -200 l23 -23
1219 0 1219 0 23 23 c22 22 23 28 23 212 0 184 -1 190 -23 212 l-23 23 -1207
2 c-956 2 -1212 0 -1232 -10z m1287 -179 c18 -18 33 -37 33 -43 0 -6 -20 -30
-44 -54 -38 -37 -48 -42 -81 -39 -28 2 -44 11 -59 31 l-20 27 54 55 c30 30 61
55 69 55 8 0 30 -14 48 -32z"/>
<path d="M3897 5072 l-27 -28 30 -29 30 -29 25 24 c14 13 25 29 25 35 0 11
-41 55 -51 55 -3 0 -17 -13 -32 -28z"/>
<path d="M3844 5016 c-9 -23 17 -49 46 -44 21 3 21 4 -9 32 -27 26 -31 27 -37
12z"/>
<path d="M11040 5225 l-21 -35 -32 17 c-23 13 -55 18 -112 18 -67 0 -88 -5
-130 -27 -27 -14 -64 -41 -82 -60 -32 -33 -72 -110 -73 -138 0 -13 -62 -15
-493 -15 -446 0 -513 -2 -717 -24 -133 -14 -276 -35 -349 -52 -68 -16 -127
-29 -131 -29 -4 0 -11 11 -14 24 -9 37 -62 84 -102 92 -46 8 -114 -18 -140
-54 -11 -15 -33 -51 -49 -80 -22 -41 -42 -61 -94 -93 -36 -23 -73 -49 -81 -59
-8 -10 -67 -46 -130 -81 -63 -34 -155 -90 -205 -124 -49 -34 -130 -84 -179
-111 -69 -38 -105 -66 -159 -126 -96 -105 -107 -124 -107 -181 0 -40 5 -54 29
-78 24 -24 38 -29 75 -29 26 0 70 9 99 19 28 11 68 25 87 31 143 49 202 120
154 188 -9 13 -14 26 -11 28 14 15 262 174 270 174 5 0 6 -13 2 -29 -8 -38 17
-89 51 -101 37 -14 161 -12 222 3 48 13 52 13 57 -5 10 -31 49 -21 94 25 23
23 50 54 59 70 13 21 24 27 50 27 48 0 86 40 78 84 -5 28 0 40 43 94 27 34 57
75 67 91 22 36 59 44 324 70 262 25 266 25 288 -19 24 -49 56 -52 73 -6 10 27
19 35 46 40 18 3 48 9 66 12 l32 6 -3 -59 c-2 -32 2 -89 8 -128 6 -38 15 -101
20 -138 12 -88 13 -93 67 -190 61 -109 66 -114 157 -158 77 -38 84 -39 182
-39 207 0 366 51 576 183 86 54 87 55 150 50 53 -5 72 -2 107 16 l42 22 37
-29 c84 -67 188 -82 294 -42 54 20 111 69 137 118 9 16 18 19 49 15 119 -16
236 88 218 195 -7 45 -59 100 -103 108 -24 5 -33 12 -33 26 0 90 -72 191 -145
203 -83 13 -82 12 -26 97 28 42 83 110 122 152 40 43 64 76 56 76 -23 0 -131
-123 -204 -232 -36 -54 -69 -98 -73 -98 -5 0 -15 -2 -23 -6 -9 -3 -19 6 -28
28 -7 18 -29 50 -47 70 l-34 37 36 59 c19 32 49 76 66 97 19 23 27 41 20 43
-14 5 -7 13 -80 -93 l-61 -90 -68 0 c-57 0 -74 -4 -111 -29 l-43 -28 7 28 c4
16 29 69 57 118 27 49 46 92 43 95 -8 8 -31 -26 -80 -121 l-42 -79 -21 35
c-12 19 -36 46 -52 60 l-30 25 21 41 c25 49 10 53 -20 5z m-37 -52 c59 -32
101 -81 124 -143 22 -59 19 -57 51 -27 35 33 72 47 128 47 77 0 146 -54 160
-125 7 -38 16 -42 54 -20 30 17 107 19 147 4 66 -25 106 -88 105 -165 l0 -52
40 -5 c50 -7 95 -48 104 -94 19 -104 -123 -203 -227 -159 -12 5 -23 -4 -42
-37 -47 -79 -130 -127 -219 -127 -76 0 -120 15 -178 61 l-50 40 -29 -21 c-31
-24 -96 -36 -136 -26 -25 6 -24 8 55 99 73 83 120 158 120 192 0 7 11 10 28 7
67 -9 86 79 23 110 -18 9 -41 29 -51 45 -18 30 -91 100 -131 126 -36 24 -154
47 -317 62 -79 7 -146 16 -150 19 -3 3 1 24 8 47 16 47 79 123 121 144 79 42
183 40 262 -2z m-2193 -208 c51 -26 66 -75 24 -75 -30 0 -60 -14 -94 -45 -14
-12 -68 -39 -120 -60 -126 -50 -131 -51 -88 -24 42 27 66 57 96 114 46 91 115
125 182 90z m55 -91 c-25 -10 -105 -32 -105 -28 0 10 59 33 85 33 17 0 26 -2
20 -5z m1445 -99 c0 -10 -11 -15 -35 -15 -70 0 -147 -51 -167 -110 -3 -8 -8
13 -12 48 -4 35 -10 70 -13 78 -4 12 14 14 111 14 96 0 116 -3 116 -15z m-581
-46 c-11 -22 -12 -22 -25 -4 -20 27 -17 43 9 47 26 4 33 -13 16 -43z m1031 25
c159 -15 211 -26 231 -50 11 -14 6 -15 -45 -13 -41 2 -60 -1 -67 -12 -15 -24
-10 -72 12 -108 l20 -34 -33 -34 c-37 -39 -141 -109 -221 -149 l-52 -27 -41
47 -41 47 -58 -16 c-107 -28 -196 -18 -264 30 -47 32 -70 73 -78 133 -11 96
50 163 151 167 45 1 51 4 54 25 l4 22 141 -7 c78 -3 207 -13 287 -21z m-1727
-85 c-10 -16 -37 -51 -60 -77 -54 -61 -71 -50 -42 29 19 53 24 57 62 67 23 5
46 10 50 11 5 0 0 -13 -10 -30z m-103 -25 c-25 -65 -50 -86 -50 -41 0 28 26
67 45 67 11 0 12 -6 5 -26z m2065 -1 c-8 -16 -26 -41 -41 -57 -26 -29 -27 -29
-41 -10 -18 25 -27 60 -19 79 4 11 21 15 61 15 l56 0 -16 -27z m-2132 -15 c-7
-40 -11 -45 -44 -53 -20 -5 -29 -1 -42 19 l-17 25 53 20 c28 11 53 20 54 20 1
1 0 -14 -4 -31z m-97 -39 c13 -15 19 -36 19 -70 0 -27 -1 -49 -3 -49 -8 0
-111 72 -122 86 -15 17 -16 16 35 37 51 20 49 21 71 -4z m-16 -114 c30 -15 31
-18 17 -33 -14 -13 -22 -14 -59 -3 -78 23 -190 73 -181 82 4 4 31 16 58 27
l50 20 41 -38 c23 -21 56 -46 74 -55z m148 69 c27 -19 44 -57 35 -80 -17 -45
-101 -31 -125 21 -27 59 34 98 90 59z m-185 -128 c15 -5 16 -9 5 -27 -12 -20
-19 -21 -108 -16 -53 3 -103 9 -112 12 -23 9 -29 43 -13 80 l13 33 99 -38 c54
-21 106 -41 116 -44z m-244 39 c-7 -24 -6 -41 1 -55 9 -17 7 -26 -9 -47 -12
-14 -21 -32 -21 -39 0 -17 -2 -17 -34 -2 -29 12 -40 39 -37 82 2 37 14 52 60
76 49 26 51 25 40 -15z m1779 -69 c56 -20 164 -21 224 -3 l44 14 33 -39 c37
-44 43 -40 -93 -68 -124 -25 -155 -25 -209 1 -38 18 -50 33 -81 93 -20 39 -36
75 -36 79 0 4 16 -8 36 -27 20 -19 56 -42 82 -50z m-1435 13 c-26 -43 -100
-112 -112 -105 -15 10 11 58 61 112 32 35 44 42 54 33 12 -9 11 -16 -3 -40z
m-190 -39 c50 0 68 -3 65 -12 -6 -17 -121 -46 -185 -47 -58 -1 -65 8 -37 48
14 19 23 22 53 17 20 -3 67 -6 104 -6z"/>
<path d="M10697 4712 c-25 -28 -21 -69 8 -88 29 -19 60 -11 81 20 37 57 -44
118 -89 68z"/>
<path d="M12565 5147 c-3 -12 -2 -42 3 -65 9 -39 8 -44 -18 -65 -15 -13 -35
-35 -45 -50 -17 -26 -17 -28 0 -47 14 -16 31 -20 76 -20 56 0 58 -1 68 -32 6
-18 20 -44 30 -57 15 -20 21 -22 39 -12 12 6 27 29 33 51 11 37 15 40 58 46
53 8 81 20 81 36 0 6 -21 31 -46 55 l-45 44 16 43 c32 82 -6 111 -83 62 l-38
-24 -39 29 c-48 36 -82 38 -90 6z m80 -29 l37 -31 52 26 c83 42 91 36 55 -43
l-20 -45 48 -41 c56 -49 52 -61 -21 -66 l-49 -3 -14 -47 c-7 -27 -20 -48 -27
-48 -8 0 -23 24 -35 54 l-22 53 -40 -4 c-50 -6 -89 3 -89 21 0 8 18 30 40 50
40 36 40 36 30 83 -18 79 -2 92 55 41z"/>
<path d="M2910 4500 l0 -210 80 0 80 0 0 210 0 210 -80 0 -80 0 0 -210z"/>
<path d="M3130 4500 l0 -210 40 0 40 0 0 210 0 210 -40 0 -40 0 0 -210z"/>
<path d="M3270 4500 c0 -203 1 -210 20 -210 19 0 20 7 20 210 0 203 -1 210
-20 210 -19 0 -20 -7 -20 -210z"/>
<path d="M4170 4500 c0 -203 1 -210 20 -210 19 0 20 7 20 210 0 203 -1 210
-20 210 -19 0 -20 -7 -20 -210z"/>
<path d="M4270 4500 l0 -210 40 0 40 0 0 210 0 210 -40 0 -40 0 0 -210z"/>
<path d="M4410 4500 l0 -210 75 0 75 0 0 210 0 210 -75 0 -75 0 0 -210z"/>
<path d="M3597 4569 c-43 -5 -101 -17 -129 -27 -146 -49 -45 -108 202 -119
329 -15 525 79 275 132 -92 19 -253 26 -348 14z"/>
<path d="M9527 4528 c-52 -14 -154 -110 -208 -196 -24 -37 -67 -119 -96 -182
-46 -97 -66 -126 -131 -195 -43 -44 -95 -108 -116 -142 l-38 -61 -56 34 c-56
34 -168 75 -201 73 -9 0 16 -11 54 -23 39 -12 98 -37 133 -56 54 -28 62 -37
57 -54 -3 -12 -14 -58 -23 -102 l-17 -81 -65 3 -65 3 71 -10 72 -11 5 -40 c12
-92 98 -220 206 -309 30 -24 66 -54 80 -66 l26 -23 -31 11 c-17 5 -62 36 -99
67 -175 148 -230 154 -460 50 -72 -33 -135 -54 -185 -62 -89 -15 -118 -28
-126 -61 -15 -59 43 -110 148 -127 60 -11 64 -13 60 -35 -7 -35 15 -77 50 -98
35 -20 122 -24 155 -7 19 10 21 8 27 -28 14 -86 113 -108 205 -45 42 29 51 32
51 18 0 -10 7 -26 14 -36 10 -13 12 -27 5 -50 -45 -159 -25 -346 47 -428 8 -9
23 -49 34 -88 56 -200 169 -358 337 -471 135 -90 305 -136 469 -126 232 15
355 83 356 200 1 56 -21 91 -66 106 -37 12 -69 3 -206 -56 -51 -21 -85 -29
-156 -32 -106 -5 -169 6 -250 45 -65 31 -202 152 -149 132 64 -24 109 -28 137
-11 36 21 52 70 40 116 l-10 35 46 7 c161 22 366 81 447 128 92 54 111 121 50
174 -41 36 -84 47 -182 46 -81 0 -76 -4 -114 104 l-18 53 132 -7 c101 -5 139
-4 158 6 31 17 48 40 49 65 0 18 8 20 93 23 134 4 233 36 320 104 l37 30 49
-31 c26 -17 76 -60 109 -95 70 -73 80 -77 25 -10 -36 43 -138 127 -165 136 -8
3 -2 20 19 54 18 27 39 67 48 88 16 37 17 38 53 31 48 -9 157 -59 199 -91 19
-14 36 -24 39 -21 14 13 -166 107 -235 122 -33 7 -33 8 -26 49 4 22 11 95 15
161 7 116 9 124 58 235 84 189 110 331 80 434 -18 58 -81 119 -143 137 -75 21
-229 15 -354 -14 l-103 -25 -82 43 c-44 23 -116 55 -158 70 -43 15 -78 31 -78
35 0 4 -31 54 -69 111 -141 211 -266 298 -384 267z m126 -32 c78 -33 186 -150
273 -295 l48 -80 76 -26 c41 -15 113 -47 161 -72 l85 -44 80 20 c299 75 455
40 504 -113 28 -87 -9 -256 -99 -450 -39 -84 -41 -94 -42 -185 0 -53 -6 -121
-12 -151 -10 -45 -16 -55 -37 -61 -16 -4 -18 -7 -7 -8 23 -1 22 -23 -4 -74
-30 -57 -61 -97 -71 -91 -4 3 -8 -1 -8 -9 0 -31 -126 -99 -218 -117 -100 -20
-266 -8 -394 29 -97 28 -275 94 -403 151 l-50 22 25 16 c58 38 90 79 90 116 0
68 -46 91 -165 84 -57 -4 -88 -12 -143 -40 l-70 -35 -73 52 c-140 98 -255 244
-274 348 -5 27 -4 37 6 37 9 0 7 4 -4 13 -14 10 -15 21 -8 72 13 84 27 119 48
111 13 -5 14 -4 3 8 -19 23 35 108 138 218 60 63 95 110 111 148 87 207 193
356 286 404 37 20 105 20 148 2z m-705 -1250 c15 -8 63 -44 106 -81 93 -78
104 -84 158 -93 l41 -7 -45 -49 -44 -49 -48 23 c-26 13 -74 46 -107 73 -82 66
-119 87 -151 87 -31 0 -78 -19 -78 -32 0 -11 14 -10 44 3 37 17 65 6 152 -62
43 -33 100 -72 125 -85 l47 -23 -51 -100 c-28 -55 -54 -98 -59 -95 -4 3 -8 23
-8 46 l0 40 -39 -35 c-52 -47 -92 -67 -133 -67 -62 0 -103 54 -77 101 15 30 7
32 -45 15 -26 -9 -67 -16 -92 -16 -37 0 -51 6 -75 29 -16 16 -29 39 -29 50 0
22 32 61 50 61 6 0 10 4 10 9 0 6 -32 7 -75 4 -116 -9 -209 38 -190 96 7 24
22 30 112 46 41 8 122 35 185 63 62 28 129 55 148 61 43 13 132 6 168 -13z
m593 -120 c-19 -7 -37 -18 -39 -26 -4 -10 0 -11 14 -5 11 5 39 9 64 9 62 1 60
-23 -3 -39 -27 -7 -54 -18 -60 -25 -10 -10 -7 -11 13 -6 14 3 43 9 65 12 l40
5 -41 -38 c-23 -21 -96 -65 -163 -98 -111 -55 -141 -75 -108 -75 6 0 52 20
100 44 l89 44 106 -45 c59 -25 130 -53 157 -64 l50 -19 0 -107 c0 -95 4 -116
27 -171 22 -52 24 -64 13 -69 -36 -13 -7 -18 91 -15 81 3 115 1 149 -12 61
-24 67 -45 9 -38 -29 3 -44 1 -44 -7 0 -6 11 -11 25 -11 31 0 75 -20 75 -35 0
-40 -129 -109 -280 -150 -83 -22 -281 -59 -285 -52 -1 1 -20 29 -43 63 -35 52
-78 94 -97 94 -3 0 17 -27 45 -61 74 -89 108 -167 90 -212 -8 -21 -8 -21 -15
5 -7 29 -31 55 -41 45 -3 -3 1 -16 10 -29 25 -35 21 -68 -7 -68 -19 0 -26 8
-36 40 -11 37 -27 58 -37 48 -2 -3 3 -21 11 -41 15 -35 14 -37 -4 -37 -11 0
-61 28 -112 63 l-93 62 0 62 c-1 51 -5 66 -26 88 -41 44 -76 57 -130 50 -42
-6 -50 -4 -59 14 -14 25 -14 41 0 41 26 0 69 43 80 80 10 34 9 47 -10 100
l-22 61 26 51 c33 62 31 125 -5 163 l-22 23 37 58 c104 162 228 242 375 242
l55 0 -34 -12z m-406 -336 c22 -42 18 -89 -10 -135 -30 -49 -30 -57 -4 -121
25 -59 21 -88 -17 -133 -54 -65 -80 -28 -77 114 2 108 56 305 84 305 5 0 15
-13 24 -30z m821 -33 c43 -14 107 -31 142 -37 66 -13 79 -31 46 -64 -24 -25
-59 -29 -169 -23 -134 9 -135 9 -135 66 0 60 10 93 25 88 6 -3 47 -16 91 -30z
m-739 -484 c41 -27 72 -130 44 -147 -10 -7 -171 140 -171 155 0 16 99 10 127
-8z m71 -200 c40 -31 90 -78 111 -104 40 -51 104 -108 151 -135 27 -16 27 -18
14 -50 -8 -18 -14 -52 -14 -74 0 -22 -3 -40 -6 -40 -21 0 -122 70 -183 126
-86 80 -159 186 -200 293 -42 110 -41 121 12 76 23 -20 75 -61 115 -92z m945
-235 c11 -13 17 -37 17 -66 0 -41 -5 -50 -43 -87 -44 -42 -125 -76 -190 -79
-27 -1 -35 4 -50 34 -12 23 -17 52 -15 88 l3 53 80 36 c135 59 163 62 198 21z
m-550 -54 l68 -17 -8 -31 c-4 -17 -7 -53 -6 -80 l2 -48 -42 6 c-22 4 -60 15
-84 26 -41 18 -43 20 -43 64 0 49 17 96 34 96 6 0 42 -7 79 -16z m243 -63 c1
-28 9 -64 18 -82 9 -18 16 -34 16 -36 0 -1 -42 -3 -94 -3 -105 0 -106 1 -106
73 0 88 4 90 125 95 l40 2 1 -49z"/>
<path d="M9481 4334 c-40 -36 -121 -177 -109 -189 4 -4 36 -2 72 4 36 6 115
14 175 18 74 4 111 10 111 18 0 28 -119 161 -157 176 -39 14 -51 11 -92 -27z
m112 -11 c36 -25 97 -101 97 -121 0 -5 -37 -12 -82 -15 -46 -3 -112 -9 -147
-13 l-64 -7 33 62 c32 60 89 121 112 121 7 0 29 -12 51 -27z"/>
<path d="M10526 3909 c-22 -5 -42 -12 -44 -14 -3 -3 26 -38 65 -78 38 -40 89
-103 113 -140 24 -37 47 -67 51 -67 12 0 51 136 56 201 5 63 4 66 -22 87 -23
19 -40 22 -104 21 -42 -1 -94 -5 -115 -10z m202 -25 c27 -19 29 -60 6 -148
-24 -94 -25 -94 -76 -19 -26 38 -67 88 -92 113 -26 24 -46 47 -46 51 0 21 178
24 208 3z"/>
<path d="M9454 3696 c-54 -45 -29 -128 43 -142 27 -5 37 -1 63 24 38 38 40 79
5 116 -31 33 -74 34 -111 2z m71 -31 c0 -22 -31 -33 -47 -17 -17 17 -1 44 24
40 15 -2 23 -10 23 -23z"/>
<path d="M9844 3498 c-9 -14 23 -38 53 -38 28 0 31 25 4 40 -26 13 -48 13 -57
-2z"/>
<path d="M9712 3413 c-45 -147 -37 -220 26 -244 60 -23 116 15 202 137 45 63
47 67 21 59 -32 -10 -60 3 -81 38 -17 28 -24 31 -58 28 -34 -2 -43 2 -63 28
l-24 30 -23 -76z m102 -3 c25 0 38 -6 46 -21 6 -11 24 -28 41 -38 l29 -18 -31
-47 c-30 -45 -32 -46 -53 -31 -53 39 -83 55 -103 55 -32 0 -36 15 -18 70 14
44 19 49 35 40 10 -6 35 -10 54 -10z m-41 -131 c28 -15 67 -50 67 -61 0 -5
-16 -16 -35 -25 -28 -13 -39 -14 -60 -5 -26 12 -45 47 -45 83 0 22 37 26 73 8z"/>
<path d="M10207 3330 c-35 -41 -34 -74 3 -112 26 -25 36 -29 62 -24 103 20
104 149 2 163 -36 5 -43 2 -67 -27z m80 -16 c3 -8 -2 -23 -11 -32 -15 -15 -17
-15 -32 0 -21 21 -11 48 16 48 11 0 23 -7 27 -16z"/>
<path d="M12679 4517 c-71 -48 -128 -152 -154 -279 -9 -47 -47 -37 -118 28
-107 100 -238 143 -287 94 -43 -43 -38 -112 14 -187 18 -26 46 -68 63 -93 16
-25 39 -69 49 -99 23 -65 61 -109 103 -117 20 -4 31 -12 31 -24 0 -28 55 -95
93 -114 23 -10 46 -14 63 -10 32 8 64 58 64 101 0 44 12 47 46 12 39 -42 75
-59 123 -59 31 0 44 6 65 30 39 47 52 106 34 156 -14 39 -14 41 14 66 35 32
37 87 8 171 -15 41 -20 82 -20 152 0 103 -19 163 -59 185 -34 18 -96 12 -132
-13z m122 -10 c36 -27 49 -74 49 -170 0 -68 6 -110 21 -154 26 -78 22 -130
-11 -154 -47 -33 -64 -32 -76 5 -6 21 -7 43 0 62 12 36 -6 105 -41 159 -19 28
-27 54 -28 90 -1 30 -11 68 -24 94 l-23 44 23 18 c27 21 86 24 110 6z m-117
-75 c17 -34 29 -114 19 -127 -4 -6 -27 -22 -50 -37 -23 -15 -52 -41 -64 -58
-49 -66 -56 20 -11 138 24 61 69 125 83 117 5 -4 15 -18 23 -33z m-465 -126
c6 -29 25 -71 41 -92 16 -22 30 -48 30 -60 0 -46 33 -127 66 -163 18 -21 37
-52 40 -70 6 -31 6 -31 -34 -31 -34 0 -44 5 -62 29 -11 16 -27 47 -34 69 -21
58 -43 97 -92 164 -85 116 -81 202 12 207 17 1 23 -8 33 -53z m97 5 c69 -47
129 -105 120 -119 -7 -12 -136 -3 -154 11 -18 14 -48 75 -57 115 -6 28 -4 32
13 32 11 0 46 -18 78 -39z m413 -57 c36 -45 55 -111 45 -152 -8 -31 -15 -38
-49 -48 -22 -7 -63 -13 -91 -13 -63 -1 -83 16 -65 55 6 14 11 40 11 59 0 27 9
41 51 79 28 25 57 46 64 46 8 0 23 -12 34 -26z m-334 -96 c-18 -59 -17 -67 8
-92 15 -14 38 -26 52 -26 14 0 25 -4 25 -9 0 -12 -46 -48 -72 -56 -40 -13 -89
62 -103 158 l-7 47 52 0 c50 0 52 -1 45 -22z m153 10 c20 -20 14 -48 -17 -79
-30 -30 -67 -37 -100 -19 -37 19 -33 66 8 97 21 16 93 17 109 1z m30 -171 c39
-69 47 -106 27 -113 -18 -7 -35 11 -70 78 -27 52 -32 84 -12 91 18 6 23 1 55
-56z m200 29 c2 -10 -2 -22 -10 -27 -19 -12 -135 -11 -159 1 -32 18 -21 30 29
31 26 1 61 5 77 9 43 11 59 7 63 -14z m-281 -49 c-3 -8 -22 -27 -42 -43 -30
-23 -38 -25 -46 -13 -16 25 -10 37 34 62 42 24 65 21 54 -6z m352 -28 c21 -62
-24 -159 -75 -159 -21 0 -22 4 -19 47 2 25 9 51 15 57 5 5 10 27 10 48 0 35 2
38 29 38 24 0 31 -6 40 -31z m-82 5 c9 -23 -9 -68 -29 -72 -9 -2 -34 2 -56 8
-32 8 -42 17 -51 42 -6 17 -11 33 -11 34 0 2 32 4 70 4 56 0 72 -3 77 -16z
m-226 -82 c-5 -10 -17 -25 -26 -32 -13 -11 -19 -9 -40 10 -33 31 -31 43 7 75
l31 26 19 -30 c15 -22 17 -35 9 -49z m-96 -3 c4 -11 19 -28 34 -37 16 -9 40
-31 55 -49 27 -32 27 -32 6 -43 -30 -16 -52 -5 -99 45 -42 46 -50 72 -29 93
17 17 26 15 33 -9z m262 4 c34 -6 47 -25 38 -54 -9 -28 -35 -23 -72 13 -36 35
-45 65 -15 53 9 -4 31 -9 49 -12z m-127 -45 c0 -44 -9 -59 -30 -48 -29 15 -32
40 -9 72 24 33 39 24 39 -24z"/>
<path d="M2696 4149 l-26 -20 0 -169 0 -169 26 -20 c21 -17 41 -21 95 -21 l69
0 0 210 0 210 -69 0 c-54 0 -74 -4 -95 -21z"/>
<path d="M2920 3960 l0 -210 85 0 85 0 0 210 0 210 -85 0 -85 0 0 -210z"/>
<path d="M3130 3960 l0 -210 45 0 45 0 0 210 0 210 -45 0 -45 0 0 -210z"/>
<path d="M3270 3960 l0 -210 25 0 25 0 0 210 0 210 -25 0 -25 0 0 -210z"/>
<path d="M4170 3960 c0 -203 1 -210 20 -210 19 0 20 7 20 210 0 203 -1 210
-20 210 -19 0 -20 -7 -20 -210z"/>
<path d="M4260 3960 l0 -210 45 0 45 0 0 210 0 210 -45 0 -45 0 0 -210z"/>
<path d="M4397 4163 c-4 -3 -7 -98 -7 -210 l0 -203 85 0 85 0 0 210 0 210 -78
0 c-43 0 -82 -3 -85 -7z"/>
<path d="M4600 3960 l0 -210 75 0 c68 0 78 3 99 24 17 20 57 34 186 66 91 23
170 46 177 52 17 13 18 134 1 144 -6 4 -86 26 -179 49 -105 27 -178 50 -195
64 -21 17 -40 21 -95 21 l-69 0 0 -210z"/>
<path d="M3526 4024 c-94 -21 -128 -39 -124 -67 7 -49 126 -77 328 -77 202 0
321 28 328 77 4 24 -13 36 -86 60 -71 22 -356 27 -446 7z"/>
<path d="M11210 3926 c0 -8 -11 -28 -25 -45 -26 -30 -26 -30 -5 -41 12 -6 25
-22 30 -36 11 -29 34 -31 52 -5 8 11 23 19 33 18 18 -2 20 4 19 48 -1 47 -3
50 -27 50 -14 0 -32 6 -38 13 -17 16 -39 15 -39 -2z m60 -36 c14 7 17 4 17
-21 0 -16 -6 -29 -12 -29 -7 0 -20 -10 -28 -22 l-16 -23 0 22 c-1 13 -10 24
-23 29 l-23 7 23 10 c12 6 22 17 22 26 0 11 3 12 12 3 7 -7 17 -8 28 -2z"/>
<path d="M2699 3621 c-23 -19 -24 -23 -24 -186 0 -163 1 -167 24 -186 18 -15
39 -19 92 -19 l69 0 0 205 0 205 -69 0 c-53 0 -74 -4 -92 -19z"/>
<path d="M2930 3435 l0 -205 80 0 80 0 0 205 0 205 -80 0 -80 0 0 -205z"/>
<path d="M3140 3435 l0 -205 45 0 45 0 0 205 0 205 -45 0 -45 0 0 -205z"/>
<path d="M3275 3435 l0 -205 23 0 22 0 0 205 0 205 -22 0 -23 0 0 -205z"/>
<path d="M4170 3435 l0 -205 25 0 25 0 0 205 0 205 -25 0 -25 0 0 -205z"/>
<path d="M4270 3435 l0 -205 43 0 42 0 0 205 0 205 -42 0 -43 0 0 -205z"/>
<path d="M4400 3435 l0 -205 85 0 85 0 0 205 0 205 -85 0 -85 0 0 -205z"/>
<path d="M4610 3435 l0 -205 72 0 c62 0 75 3 97 24 20 18 66 34 189 65 90 22
170 45 178 52 18 15 19 122 2 137 -7 5 -89 29 -183 52 -111 28 -176 49 -188
61 -14 15 -32 19 -92 19 l-75 0 0 -205z"/>
<path d="M11418 3599 c-64 -21 -109 -69 -135 -143 -14 -40 -18 -80 -17 -191 1
-159 27 -307 90 -511 52 -168 52 -168 14 -184 -18 -7 -59 -31 -93 -53 -134
-86 -237 -197 -299 -322 -17 -33 -32 -62 -34 -64 -2 -2 -21 3 -41 13 -44 19
-166 46 -203 45 -14 -1 10 -7 52 -15 43 -8 103 -24 134 -35 49 -18 55 -24 49
-43 -3 -11 -11 -52 -17 -89 l-12 -69 -50 6 c-28 3 -76 2 -106 -3 -50 -8 -46
-9 52 -10 l106 -1 7 -42 c16 -96 86 -195 180 -255 l43 -27 -34 -31 c-37 -36
-43 -68 -20 -113 18 -35 103 -115 144 -136 68 -35 12 -54 -93 -31 -106 22
-271 20 -339 -5 -73 -28 -103 -53 -115 -98 -12 -42 3 -70 20 -40 6 11 22 18
41 18 39 0 26 17 -16 22 -28 3 -29 4 -12 20 11 11 33 18 57 18 21 0 39 5 39
10 0 6 -7 10 -15 10 -8 0 -15 4 -15 10 0 31 275 35 389 6 55 -14 75 -16 80 -7
4 7 35 25 68 40 58 28 122 82 173 147 l25 32 60 -14 60 -14 23 -78 c30 -96 83
-211 89 -194 3 7 -6 39 -20 70 -14 31 -37 97 -51 146 -39 133 -31 218 13 146
12 -20 21 -27 26 -20 4 6 -5 26 -19 45 -26 34 -26 34 -6 45 16 9 24 7 44 -13
12 -13 25 -30 28 -38 3 -8 9 -11 13 -7 5 5 3 19 -3 33 -6 14 -9 25 -6 25 25 0
144 -104 220 -194 32 -37 60 -63 62 -57 2 6 14 11 26 11 20 0 24 -7 30 -46 3
-26 6 -78 6 -115 0 -38 4 -69 9 -69 5 0 11 5 13 11 3 9 17 9 56 0 66 -14 364
-15 342 -1 -8 5 -74 10 -146 10 -135 0 -243 15 -249 34 -2 6 -5 41 -7 77 l-4
66 46 -23 c74 -37 119 -44 260 -41 111 2 140 -1 165 -15 34 -19 72 -53 103
-93 12 -15 27 -25 34 -22 8 3 -12 29 -52 69 -84 83 -118 93 -273 84 -121 -7
-182 4 -242 44 l-30 20 145 -6 c245 -11 363 19 464 117 33 33 64 59 68 59 18
0 136 -64 186 -101 28 -22 52 -35 52 -30 0 14 -141 106 -194 126 -25 10 -46
20 -46 24 1 3 9 31 20 61 11 30 19 70 20 89 l0 34 73 -5 c39 -3 97 -14 127
-26 90 -33 97 -34 58 -13 -49 27 -141 51 -198 51 l-46 0 -11 98 c-17 140 -68
278 -144 389 -16 23 -29 45 -29 50 0 4 41 44 91 88 235 207 406 445 425 591
17 143 -98 256 -261 255 -59 0 -80 -5 -140 -35 -152 -76 -297 -246 -469 -548
l-27 -48 -39 20 c-60 31 -195 67 -304 81 l-98 13 6 115 c12 206 -19 442 -76
579 -72 174 -224 261 -370 211z m182 -30 c99 -44 162 -139 208 -308 24 -90 26
-113 29 -365 1 -148 4 -271 7 -273 2 -2 6 8 10 22 4 14 13 25 22 25 30 0 160
-22 219 -37 49 -12 182 -59 193 -68 1 -1 -2 -14 -7 -28 -5 -14 -7 -28 -4 -31
4 -3 35 47 71 111 86 159 156 262 245 364 125 143 218 200 337 207 68 3 80 1
130 -25 34 -18 66 -45 85 -72 26 -37 30 -51 29 -106 0 -52 -7 -77 -41 -146
-82 -170 -227 -332 -517 -581 -5 -4 -7 -11 -3 -14 4 -4 13 -1 21 5 19 16 31 8
62 -41 85 -134 134 -280 134 -400 0 -58 -3 -68 -17 -69 -17 -1 -17 -2 0 -6 21
-6 22 -30 0 -106 -11 -39 -22 -61 -34 -64 -11 -3 -15 -11 -12 -20 7 -19 -60
-88 -112 -115 -102 -53 -281 -69 -489 -45 l-129 16 -102 100 c-126 125 -198
161 -256 131 -28 -16 -49 -63 -49 -113 l0 -45 -102 24 c-226 53 -386 119 -485
200 -87 71 -128 209 -100 339 10 51 15 60 32 57 18 -2 18 -2 3 8 -16 10 -15
16 17 79 46 93 121 183 215 261 102 85 185 128 211 112 26 -17 25 -5 -12 103
-46 135 -96 336 -115 465 -35 242 9 416 116 459 44 17 141 12 190 -10z m-289
-2034 c74 -25 142 -45 152 -45 9 0 17 -4 17 -8 0 -23 -71 -100 -123 -133 l-60
-39 -38 22 c-85 48 -169 138 -169 183 0 22 45 65 68 65 11 0 80 -20 153 -45z"/>
<path d="M11493 3160 c-12 -5 -29 -23 -38 -40 -15 -28 -15 -43 -5 -123 14
-104 40 -225 72 -341 l22 -78 56 6 c30 4 59 11 65 17 15 16 8 299 -11 399 -8
48 -24 102 -35 119 -27 45 -76 61 -126 41z m89 -33 c40 -34 60 -137 66 -343
l4 -171 -43 -6 c-24 -3 -45 -4 -47 -2 -2 2 -15 40 -28 85 -32 111 -64 292 -64
361 0 50 3 60 26 78 34 27 53 26 86 -2z"/>
<path d="M12734 2821 c-65 -39 -233 -246 -290 -355 l-29 -57 45 -39 c25 -22
48 -40 51 -40 3 0 60 51 126 114 135 129 228 238 238 279 10 37 -12 85 -46
102 -37 20 -58 19 -95 -4z m73 -11 c29 -10 53 -45 53 -75 0 -24 -115 -158
-230 -269 -61 -58 -114 -106 -118 -106 -4 1 -22 14 -40 29 l-33 29 42 68 c81
134 232 310 279 327 8 3 15 6 16 6 1 1 15 -4 31 -9z"/>
<path d="M11433 2215 c-45 -19 -83 -60 -83 -87 0 -21 2 -20 21 10 27 41 66 62
120 62 33 0 47 -6 75 -34 23 -23 34 -44 34 -62 0 -36 14 -61 24 -45 11 17 -3
72 -26 104 -36 51 -113 75 -165 52z"/>
<path d="M11872 2093 c4 -21 55 -30 72 -13 14 14 -9 30 -47 30 -22 0 -28 -4
-25 -17z"/>
<path d="M12300 2063 c-43 -8 -90 -53 -104 -100 -11 -34 10 -28 24 7 26 63
112 90 179 55 28 -14 61 -68 61 -99 0 -9 5 -16 10 -16 15 0 12 38 -6 76 -26
54 -100 89 -164 77z"/>
<path d="M11762 1960 c-3 -122 16 -178 68 -200 28 -12 36 -11 67 5 38 21 75
76 99 151 9 27 21 53 25 59 5 5 9 15 9 22 0 10 -5 11 -19 3 -32 -16 -60 -12
-87 15 -20 20 -29 23 -44 15 -30 -16 -65 -12 -85 10 -10 11 -21 20 -25 20 -3
0 -7 -45 -8 -100z m155 30 c14 -11 36 -20 49 -20 29 0 29 -4 3 -67 l-20 -50
-37 18 c-20 11 -57 19 -84 19 -48 0 -48 0 -48 33 0 57 10 79 34 74 11 -2 32
-1 46 3 14 5 27 8 28 9 2 1 15 -8 29 -19z m-22 -134 c19 -8 35 -20 35 -25 0
-23 -41 -51 -74 -51 -39 0 -53 14 -62 58 -6 31 -6 32 30 32 20 0 52 -7 71 -14z"/>
<path d="M12155 3549 c-4 -6 -4 -35 0 -64 6 -53 6 -54 -34 -94 -23 -23 -41
-47 -41 -55 0 -30 30 -46 89 -46 l57 0 21 -50 c18 -41 26 -50 46 -50 21 0 28
8 42 45 16 42 20 45 64 51 84 12 94 44 29 97 l-42 36 18 50 c15 43 16 54 5 67
-16 20 -59 12 -100 -17 l-29 -20 -37 30 c-38 31 -76 40 -88 20z m80 -39 c21
-16 41 -30 46 -30 4 0 25 11 45 25 66 45 79 26 43 -63 -13 -30 -12 -34 5 -44
10 -6 32 -23 50 -39 26 -24 29 -30 16 -39 -8 -5 -36 -10 -61 -10 -46 0 -47 -1
-54 -37 -7 -38 -21 -63 -35 -63 -5 0 -18 24 -30 53 l-22 54 -57 -4 c-43 -4
-60 -1 -70 11 -11 12 -5 22 33 58 44 42 45 45 36 83 -20 84 -7 94 55 45z"/>
<path d="M8703 3533 c9 -2 25 -2 35 0 9 3 1 5 -18 5 -19 0 -27 -2 -17 -5z"/>
<path d="M8620 3520 c-13 -9 -13 -10 0 -9 8 1 26 5 40 9 l25 8 -25 1 c-14 0
-32 -4 -40 -9z"/>
<path d="M3615 3510 c-107 -10 -169 -27 -194 -54 -23 -25 -18 -37 24 -58 53
-27 146 -40 285 -41 203 0 340 31 340 78 0 54 -246 95 -455 75z"/>
<path d="M2675 3085 c-25 -24 -25 -27 -25 -188 0 -162 0 -164 25 -187 l25 -24
1035 0 1035 0 27 26 c22 20 62 34 183 63 85 21 165 44 178 52 19 11 22 22 22
73 0 37 -5 64 -14 73 -8 7 -92 33 -186 56 -111 28 -179 50 -191 62 -18 18 -54
19 -1054 19 l-1036 0 -24 -25z"/>
<path d="M2981 2554 c-19 -24 -21 -40 -21 -186 0 -155 1 -159 25 -183 21 -22
33 -25 98 -25 59 0 76 3 81 16 3 9 6 103 6 210 l0 194 -84 0 c-79 0 -86 -2
-105 -26z"/>
<path d="M3220 2374 c0 -152 -3 -203 -12 -198 -7 4 -8 3 -4 -4 5 -8 40 -12 97
-12 l89 0 0 210 0 210 -85 0 -85 0 0 -206z"/>
<path d="M3420 2370 l1 -210 55 0 c34 0 53 4 49 10 -3 6 -1 10 4 10 8 0 11 66
11 200 l0 200 -60 0 -61 0 1 -210z"/>
<path d="M3570 2370 l0 -210 31 0 c17 0 28 4 24 10 -3 6 -1 10 4 10 8 0 11 66
11 200 l0 200 -35 0 -35 0 0 -210z"/>
<path d="M4470 2370 l0 -210 24 0 c13 0 27 7 30 16 3 9 6 103 6 210 l0 194
-30 0 -30 0 0 -210z"/>
<path d="M4560 2383 c0 -109 4 -204 9 -211 5 -9 24 -12 52 -10 l44 3 3 208 2
207 -55 0 -55 0 0 -197z"/>
<path d="M4700 2370 l0 -210 84 0 c67 0 85 3 90 16 3 9 6 103 6 210 l0 194
-90 0 -90 0 0 -210z"/>
<path d="M4910 2370 l0 -210 66 0 c64 0 99 11 119 36 6 8 88 33 184 58 95 24
177 50 182 57 14 23 11 116 -5 132 -8 8 -90 33 -182 56 -96 24 -177 50 -192
61 -19 16 -40 20 -98 20 l-74 0 0 -210z"/>
<path d="M3973 2461 c-12 -6 -57 -11 -101 -13 -44 -2 -78 -6 -76 -10 3 -4 -11
-10 -30 -13 -19 -4 -42 -15 -52 -26 -9 -10 -21 -16 -25 -13 -5 3 -9 -3 -9 -12
0 -10 3 -14 6 -11 4 3 15 -5 26 -18 11 -14 24 -23 29 -20 5 4 9 1 9 -5 0 -6 6
-10 13 -9 26 3 48 -1 43 -9 -3 -5 86 -9 197 -10 150 -1 214 2 249 12 25 8 49
12 52 9 3 -4 6 -1 6 6 0 7 4 10 9 6 5 -3 12 -1 16 5 4 6 11 8 16 5 5 -4 9 1 9
9 0 10 6 13 16 9 16 -6 14 0 -22 55 -1 2 -8 5 -16 6 -39 8 -67 19 -64 25 2 3
-21 7 -51 8 -31 2 -63 8 -71 15 -13 11 -14 11 -7 -1 6 -11 2 -13 -21 -7 -53
13 -129 16 -151 7z"/>
<path d="M8497 2289 l-45 -51 -56 18 c-43 14 -62 15 -74 7 -24 -15 -19 -67 11
-112 l26 -39 -32 -60 c-27 -52 -30 -63 -19 -86 14 -32 33 -33 112 -5 l59 20
44 -45 c69 -73 107 -58 107 44 0 46 2 51 28 60 75 28 101 55 83 89 -10 19 -88
51 -122 51 -16 0 -17 7 -12 50 3 30 1 61 -7 80 -19 46 -50 40 -103 -21z m85 9
c1 -13 2 -47 2 -77 l1 -54 55 -14 c99 -25 102 -52 11 -92 l-49 -21 5 -60 c5
-51 3 -61 -12 -66 -14 -6 -30 6 -65 47 l-48 53 -48 -22 c-60 -28 -107 -33
-111 -12 -2 8 12 41 30 71 l34 57 -33 53 c-55 86 -42 103 51 70 32 -12 59 -20
60 -18 0 1 20 26 44 55 46 56 70 66 73 30z"/>
<path d="M10646 1921 c-3 -4 6 -6 19 -3 14 2 25 6 25 8 0 8 -39 4 -44 -5z"/>
<path d="M8700 1489 c-165 -14 -329 -46 -481 -93 -77 -24 -142 -46 -146 -50
-17 -17 12 -12 110 19 130 41 303 80 417 95 108 13 358 13 475 0 286 -33 604
-142 799 -273 92 -63 119 -60 30 2 -296 209 -800 334 -1204 300z"/>
<path d="M10287 1423 c-4 -3 -7 -26 -7 -50 0 -30 -4 -43 -14 -43 -7 0 -25 -10
-40 -21 -25 -20 -26 -22 -10 -40 9 -10 29 -21 45 -24 23 -5 29 -12 29 -31 0
-68 48 -85 81 -29 19 32 25 35 65 35 39 0 44 2 44 23 0 13 -9 32 -19 41 -17
16 -18 20 -5 44 30 57 13 77 -47 56 -35 -12 -38 -11 -65 17 -27 29 -44 35 -57
22z m54 -52 c21 -29 23 -29 50 -15 15 7 35 14 43 14 14 0 14 -4 -1 -35 -16
-34 -16 -36 5 -58 31 -33 27 -40 -18 -34 -39 5 -41 4 -60 -34 -24 -46 -37 -49
-46 -11 -10 48 -13 51 -49 66 -19 8 -35 18 -35 21 0 3 16 13 35 21 32 13 35
18 35 54 0 48 12 51 41 11z"/>
<path d="M8700 1250 c-173 -24 -487 -107 -414 -109 17 -1 50 5 72 13 65 23
227 56 352 72 248 31 483 8 702 -67 32 -11 68 -19 80 -17 31 4 -146 63 -269
89 -111 24 -411 34 -523 19z"/>
<path d="M6662 8599 c-21 -6 -36 -19 -43 -36 -5 -14 -43 -192 -85 -396 -41
-204 -77 -374 -80 -379 -3 -4 -20 -8 -38 -8 -17 0 -36 -4 -42 -9 -5 -6 -8 -59
-6 -120 l3 -111 380 0 380 0 -3 116 -3 117 -47 14 c-47 13 -51 19 -62 78 -51
289 -166 719 -194 730 -30 11 -128 14 -160 4z"/>
</g>
</svg>
