<?xml version="1.0" encoding="utf-8"?>
<!DOCTYPE svg PUBLIC "-//W3C//DTD SVG 1.1//EN" "http://www.w3.org/Graphics/SVG/1.1/DTD/svg11.dtd">
        <svg version="1.0" xmlns="http://www.w3.org/2000/svg"
            width="620.000000pt" height="416.000000pt" viewBox="0 0 920.000000 716.000000"
            preserveAspectRatio="xMidYMid meet">
            <g transform="translate(0.000000,716.000000) scale(0.100000,-0.100000)">
                <path id="sonic" d="M5571 6596 c-156 -153 -253 -236 -276 -236 -8 0 -77 18 -153 39 -76
21 -183 45 -237 52 -100 13 -452 18 -655 9 -85 -3 -117 -1 -166 15 -58 18 -63
18 -88 2 -14 -10 -30 -34 -37 -57 -7 -22 -16 -40 -21 -40 -4 0 -79 -33 -167
-74 -271 -126 -457 -258 -660 -468 -141 -146 -200 -219 -306 -378 -179 -270
-293 -532 -346 -790 -27 -135 -26 -150 10 -150 16 0 34 7 41 15 7 8 38 29 69
47 31 18 85 51 121 74 48 31 412 214 425 214 1 0 -13 -42 -33 -92 -53 -142
-108 -375 -132 -563 -29 -221 -24 -555 10 -728 26 -133 55 -231 74 -246 20
-17 40 5 106 115 98 164 217 338 271 399 30 33 87 100 128 148 78 92 91 96 91
29 0 -54 57 -286 102 -417 53 -155 146 -371 197 -460 53 -90 106 -153 119
-140 5 6 17 48 26 95 54 262 100 440 114 440 24 0 36 -52 37 -160 1 -63 7
-132 14 -153 15 -48 99 -137 129 -137 13 0 27 -11 36 -27 22 -42 60 -78 97
-93 19 -7 35 -14 37 -15 1 -1 -4 -15 -13 -31 -31 -59 5 -139 83 -187 52 -32
186 -62 239 -54 l34 6 -37 -68 c-62 -115 -57 -111 -176 -127 -190 -25 -307
-74 -344 -147 -20 -38 -21 -118 -2 -172 l14 -40 -46 -51 c-49 -54 -80 -127
-80 -185 0 -33 -5 -40 -50 -69 -47 -30 -52 -31 -69 -16 -24 22 -41 20 -112 -9
-145 -58 -339 -238 -343 -316 -1 -20 -22 -49 -72 -101 -119 -124 -207 -286
-238 -441 -21 -100 -14 -326 11 -368 23 -39 72 -58 176 -69 209 -22 379 -4
627 68 238 69 376 139 554 283 119 96 219 193 285 276 l33 42 52 -56 c60 -66
255 -197 407 -273 229 -115 425 -177 749 -234 160 -29 324 -33 442 -13 88 16
103 31 101 104 -6 173 -128 434 -286 608 -29 33 -60 78 -67 99 -33 103 -48
122 -138 188 -171 127 -179 131 -232 126 -62 -6 -80 4 -80 46 0 41 -23 108
-50 146 l-20 29 44 45 c60 62 68 107 31 181 -33 68 -99 127 -188 168 l-69 32
7 125 c6 126 29 375 41 450 9 52 29 52 82 0 51 -52 79 -52 198 -1 49 22 110
44 135 50 93 24 117 41 144 97 22 47 79 129 112 162 17 17 16 27 -1 60 -26 49
-64 77 -107 77 -36 0 -39 2 -39 27 0 17 8 31 21 39 33 17 60 89 53 141 -6 39
-4 45 19 57 28 15 57 66 57 99 0 37 -30 105 -66 149 l-36 44 -8 129 c-6 117
-10 135 -39 194 -63 129 -210 220 -415 258 -61 11 -113 22 -115 24 -2 2 24 30
59 62 73 65 146 172 179 260 19 51 30 65 79 98 94 65 140 166 94 207 -23 21
-45 21 -84 1 l-31 -16 5 64 c6 80 -14 265 -37 342 -16 54 -16 67 -4 130 8 39
14 105 14 146 0 95 -30 159 -99 210 l-48 35 5 65 c3 36 -3 156 -14 267 -27
287 -67 403 -138 403 -18 0 -61 -36 -170 -144z m213 -83 c27 -179 36 -282 36
-405 l0 -118 -34 -14 c-18 -8 -37 -19 -41 -25 -4 -8 -17 2 -34 26 -50 69 -202
203 -283 250 -43 25 -81 49 -83 53 -2 4 28 33 68 64 40 32 128 116 197 187
121 125 126 129 141 110 10 -12 23 -65 33 -128z m-1598 -148 c34 -13 117 -53
185 -88 110 -58 267 -127 287 -127 8 0 -337 183 -379 200 -16 7 -29 16 -29 20
0 12 75 21 225 29 261 12 475 -15 707 -89 193 -62 324 -147 486 -314 l74 -76
25 20 c34 26 57 25 111 -6 62 -37 82 -84 81 -194 -1 -47 -4 -98 -8 -115 l-7
-30 -15 25 c-33 51 -77 136 -81 155 -4 17 -6 15 -13 -9 -5 -19 -2 -76 8 -150
35 -255 30 -431 -14 -517 -10 -21 -20 -39 -22 -39 -1 0 -2 42 -2 92 0 67 -5
107 -19 141 -10 27 -20 46 -22 44 -3 -2 3 -35 12 -73 19 -80 14 -172 -11 -210
-13 -21 -23 -25 -53 -22 -32 3 -44 12 -96 78 -256 317 -546 517 -723 496 -149
-17 -233 -116 -257 -301 -14 -109 57 -278 164 -387 38 -38 63 -71 57 -72 -7
-2 -31 -9 -54 -15 -29 -8 -54 -25 -82 -58 -36 -40 -41 -52 -41 -95 0 -69 19
-107 81 -161 68 -59 119 -83 216 -101 43 -8 116 -22 163 -30 47 -9 105 -16
128 -16 24 0 42 -3 40 -7 -49 -95 -52 -109 -52 -198 0 -110 22 -193 100 -378
72 -170 103 -225 176 -303 65 -69 112 -91 175 -81 30 5 32 4 23 -13 -27 -51
16 -19 51 37 22 35 57 47 44 16 -14 -36 -55 -232 -75 -358 -58 -367 -76 -529
-91 -838 -6 -116 -12 -213 -14 -215 -14 -14 -129 -12 -178 2 -51 15 -57 19
-52 39 3 12 14 63 25 112 88 385 112 502 135 655 33 218 43 393 25 415 -44 53
-104 -27 -286 -382 -48 -92 -119 -231 -159 -308 -39 -77 -93 -196 -120 -265
-27 -69 -55 -132 -63 -142 -40 -48 -260 -91 -348 -66 -107 29 -129 90 -61 166
31 34 -4 30 -44 -6 -58 -52 -37 -133 47 -176 32 -17 57 -21 144 -21 58 0 125
6 150 13 61 18 138 76 156 117 8 20 19 32 27 30 19 -8 67 -90 67 -116 0 -47
-43 -101 -128 -162 -92 -65 -135 -120 -130 -164 4 -28 4 -28 21 12 19 42 55
84 97 115 l26 18 -4 -96 c-4 -120 -13 -145 -66 -176 -75 -44 -150 -60 -277
-59 -95 0 -124 4 -164 22 -26 11 -54 21 -61 21 -22 0 -105 81 -120 117 -19 45
-17 97 5 141 19 37 77 100 85 91 16 -18 72 -130 87 -177 l19 -57 -4 52 c-3 28
-20 86 -39 130 -68 154 -80 189 -81 236 -1 44 3 52 40 87 28 26 62 45 105 58
70 22 246 48 255 39 4 -3 -6 -28 -22 -54 -80 -138 -104 -191 -87 -187 10 3 34
35 53 71 19 36 54 94 77 129 34 50 104 177 188 338 6 11 30 26 55 35 63 22 75
31 96 72 11 20 45 58 76 83 31 25 72 72 91 103 41 67 77 200 77 282 0 57 -3
66 -68 180 -28 50 -30 59 -25 130 5 74 4 78 -37 151 -22 41 -82 157 -131 258
-50 100 -93 182 -95 182 -9 0 7 -62 28 -112 l20 -48 -38 -47 c-43 -52 -134
-224 -134 -252 0 -52 -11 -52 -69 0 -31 27 -67 52 -81 55 -14 3 -30 7 -36 9
-14 4 -21 49 -30 180 l-6 100 68 41 c38 23 119 67 179 97 145 72 159 84 150
125 -5 26 -14 34 -46 43 -49 15 -175 -8 -288 -51 -42 -17 -80 -30 -85 -30 -5
0 -6 31 -2 70 8 73 4 80 -34 60 -27 -15 -137 -155 -167 -213 -14 -29 -57 -86
-96 -127 -38 -41 -86 -101 -107 -132 -46 -70 -75 -178 -66 -243 6 -37 1 -59
-28 -133 -38 -95 -96 -296 -116 -404 -7 -37 -16 -65 -21 -62 -13 8 -90 163
-138 277 -59 143 -109 304 -144 467 -30 142 -31 151 -31 420 -1 251 1 284 22
372 23 104 28 145 13 118 -26 -45 -71 -349 -71 -473 l0 -69 -74 -82 c-186
-206 -406 -508 -486 -666 -17 -33 -34 -60 -39 -60 -12 0 -29 72 -52 215 -39
245 -17 629 52 945 15 70 86 255 139 365 43 90 202 363 281 484 l30 46 -36
-40 c-20 -22 -46 -58 -57 -80 -21 -41 -116 -186 -128 -195 -3 -3 -20 -26 -38
-51 -23 -34 -43 -50 -79 -64 -129 -49 -500 -244 -633 -334 -24 -17 -46 -28
-48 -26 -7 6 47 180 90 287 69 176 153 337 254 488 136 203 148 218 302 374
150 151 242 230 366 313 129 86 465 251 486 238 4 -2 10 -35 13 -72 17 -172
112 -563 138 -563 4 0 7 6 5 13 -32 103 -111 518 -121 636 -8 86 1 97 54 75
20 -9 64 -26 97 -39z m1770 -898 c35 -106 37 -120 42 -274 l4 -163 -33 -31
c-43 -40 -71 -50 -119 -43 -53 9 -163 -25 -270 -83 -147 -80 -174 -92 -230
-104 -77 -16 -158 -6 -317 40 l-138 41 -67 71 c-111 119 -177 274 -164 386 22
184 126 282 288 270 159 -11 404 -188 615 -444 46 -57 94 -110 106 -118 29
-20 59 -19 88 4 35 27 69 36 69 18 0 -25 34 -59 52 -52 22 9 48 87 48 146 0
26 -11 90 -25 143 -16 61 -25 124 -25 170 0 41 -7 110 -15 153 -8 43 -15 89
-15 103 1 36 61 -96 106 -233z m-54 -357 c-7 -44 -7 -44 -12 25 -7 86 1 131
12 65 4 -25 4 -65 0 -90z m-28 -62 c15 24 25 11 15 -18 -6 -16 -15 -30 -20
-30 -11 0 -29 34 -29 56 0 17 1 17 13 -1 10 -12 16 -14 21 -7z m226 -13 c0
-43 -160 -155 -199 -140 -14 6 -13 9 7 23 12 10 55 43 95 74 74 59 97 69 97
43z m-254 -136 c-30 -36 -32 -51 -9 -74 13 -14 28 -16 65 -12 26 3 48 4 48 1
0 -37 -144 -235 -196 -269 -135 -88 -261 -132 -410 -142 -175 -11 -416 31
-519 91 -58 34 -112 97 -125 146 -10 37 -9 47 12 88 48 96 145 111 341 52 100
-30 116 -32 226 -29 l117 4 145 72 c178 90 210 101 277 102 l54 1 -26 -31z
m-104 -524 c93 -68 142 -172 159 -340 17 -160 -8 -387 -46 -434 -12 -14 -30
-43 -40 -64 -10 -22 -33 -54 -50 -73 -30 -31 -37 -34 -93 -34 -60 0 -60 0
-108 53 -88 96 -215 364 -264 557 -35 136 -15 277 44 315 12 8 62 23 111 34
50 10 106 26 125 33 44 18 92 4 162 -47z m168 3 c163 -44 301 -140 335 -234
21 -59 34 -254 17 -254 -7 0 -26 9 -44 20 -18 11 -44 20 -58 20 -40 0 -45 11
-46 90 -1 127 -43 182 -167 218 -53 15 -64 24 -123 95 l-66 78 39 -6 c21 -4
72 -16 113 -27z m-900 -88 c0 -5 6 -10 14 -10 7 0 19 -7 26 -15 11 -13 10 -18
-6 -30 -17 -13 -197 -112 -279 -154 -63 -32 -142 -87 -192 -134 -134 -127
-171 -273 -103 -406 24 -48 91 -101 165 -132 34 -14 55 -29 55 -38 0 -31 -48
-116 -83 -150 l-36 -34 -48 28 c-114 67 -211 175 -272 305 -39 82 -46 140 -27
223 32 138 89 218 231 325 148 111 285 177 440 212 95 22 115 23 115 10z
m-410 -45 c0 -8 -4 -15 -10 -15 -5 0 -7 7 -4 15 4 8 8 15 10 15 2 0 4 -7 4
-15z m1439 -148 c23 -48 28 -125 9 -131 -7 -3 -28 -7 -45 -10 -33 -5 -33 -5
-33 37 0 23 -7 69 -15 102 -21 88 -21 88 24 66 27 -14 45 -34 60 -64z m-834
-457 c-9 -14 -22 -37 -28 -52 -21 -50 -50 -33 -65 37 -15 65 -32 207 -32 265
l0 45 71 -135 c69 -132 70 -136 54 -160z m-574 152 l4 -43 -50 -18 c-27 -10
-58 -21 -67 -26 -11 -4 -18 -3 -18 4 0 21 48 117 81 161 l33 45 7 -40 c4 -22
9 -59 10 -83z m1555 101 c57 -19 156 -111 179 -167 24 -57 19 -81 -22 -115
l-37 -31 -28 33 c-15 17 -36 55 -47 82 l-20 50 0 -41 c-1 -31 7 -55 32 -91 62
-93 73 -145 37 -178 -20 -18 -20 -17 -20 12 0 83 -158 198 -290 210 l-58 6 6
36 c3 20 15 44 29 54 13 10 23 23 23 29 0 6 -9 3 -20 -7 -20 -18 -20 -17 -19
26 0 24 4 53 8 63 17 44 156 60 247 29z m-1131 -252 c7 -24 7 -24 -46 -17 -30
4 -55 9 -57 10 -1 2 17 43 40 92 l42 89 6 -75 c4 -42 11 -86 15 -99z m-279 30
c18 -11 44 -36 59 -56 24 -31 29 -49 37 -136 12 -152 30 -162 24 -14 l-5 120
59 -62 c46 -49 60 -71 68 -110 14 -64 0 -183 -29 -257 -44 -114 -186 -219
-316 -235 -83 -10 -127 -1 -164 35 -32 31 -36 44 -14 44 22 0 258 80 270 92
16 16 -83 -2 -158 -29 -94 -33 -132 -33 -203 2 -82 41 -107 87 -112 207 -3 49
-1 88 4 88 4 0 18 -10 31 -22 16 -15 23 -33 23 -61 0 -83 59 -147 136 -147 90
0 213 105 233 200 22 104 9 183 -38 224 -30 27 -99 26 -139 -2 l-30 -22 -16
25 c-25 38 -20 52 30 81 97 57 192 70 250 35z m1250 -46 c88 -26 143 -70 177
-143 26 -57 29 -71 25 -135 -4 -55 -12 -87 -36 -132 -17 -33 -36 -80 -43 -104
-7 -25 -30 -62 -50 -83 -20 -21 -31 -38 -25 -38 24 0 73 40 86 69 17 42 28 39
36 -9 4 -22 10 -37 15 -34 15 9 10 68 -7 92 -19 28 -13 58 21 94 22 24 78 48
111 48 20 0 49 -40 39 -54 -6 -7 -25 -33 -43 -56 -18 -24 -40 -65 -50 -92 -16
-45 -20 -49 -68 -63 -29 -8 -60 -15 -69 -15 -9 0 -48 -16 -87 -35 -39 -20 -89
-38 -112 -41 -39 -6 -44 -4 -69 30 -21 27 -38 37 -67 42 -49 8 -49 5 -15 209
44 260 90 439 118 457 19 12 59 9 113 -7z m-786 -70 c0 -14 -4 -25 -10 -25
-11 0 -14 33 -3 43 11 11 13 8 13 -18z m-183 -4 c115 -30 175 -78 248 -199 48
-79 54 -129 27 -242 -26 -110 -73 -193 -138 -245 -28 -22 -65 -62 -81 -90 -17
-31 -38 -52 -53 -57 -14 -4 -65 -18 -115 -32 -102 -30 -196 -34 -215 -11 -7 8
-10 32 -8 55 2 22 1 40 -3 40 -11 0 -19 -43 -13 -67 8 -31 -5 -29 -62 10 -52
35 -66 60 -53 95 8 22 10 22 38 7 17 -8 40 -15 53 -14 23 0 23 0 -2 10 -25 10
-70 47 -70 58 0 3 21 7 46 8 51 2 116 32 216 102 76 53 121 108 157 193 22 53
26 78 26 158 0 98 -13 136 -71 218 -20 27 -18 27 73 3z m-400 -16 c25 -17 49
-85 40 -109 -5 -13 -11 -13 -47 1 -46 19 -129 87 -118 98 7 8 61 22 88 24 9 1
25 -6 37 -14z m-161 -338 c24 -11 44 -25 44 -29 0 -11 -74 -10 -105 2 -25 10
-55 61 -55 96 0 12 9 8 36 -16 20 -17 56 -41 80 -53z m1045 -208 c-32 -221
-67 -408 -102 -537 -36 -133 -44 -152 -65 -152 -27 0 -138 -57 -163 -83 -12
-14 -29 -42 -36 -64 -8 -21 -14 -31 -15 -23 0 8 -16 41 -36 72 -34 56 -35 59
-20 90 8 18 40 89 70 158 67 151 294 602 344 684 36 59 37 59 40 29 2 -17 -6
-95 -17 -174z m-121 -749 c0 -52 -24 -170 -34 -170 -6 0 -22 7 -34 16 -26 18
-30 65 -7 84 9 7 13 15 10 18 -12 12 -45 -33 -45 -63 0 -41 29 -70 104 -106
53 -25 72 -29 152 -29 72 0 103 5 153 25 35 13 69 30 77 36 22 18 16 57 -12
86 -28 27 -47 24 -22 -4 36 -42 29 -64 -24 -77 -14 -3 -33 -9 -42 -12 -14 -5
-16 6 -16 84 0 50 4 94 10 97 18 11 148 -66 195 -116 33 -36 45 -56 45 -79 0
-45 -11 -60 -89 -124 -74 -61 -107 -112 -95 -149 7 -21 8 -20 16 9 4 18 22 47
38 64 l31 33 36 -58 c26 -42 38 -73 41 -110 6 -78 -19 -102 -155 -146 -97 -31
-120 -34 -223 -34 -109 0 -119 2 -183 32 -135 64 -206 154 -194 246 5 38 84
169 98 164 4 -1 39 -42 78 -92 61 -77 71 -96 71 -130 l1 -40 15 28 c23 43 11
74 -67 170 -108 135 -141 222 -103 276 14 20 144 91 166 91 4 0 8 -9 8 -20z
m-257 -287 c-71 -90 -86 -142 -67 -233 14 -68 14 -76 -12 -198 -55 -262 -52
-259 -53 -62 -1 140 3 184 16 220 11 30 16 72 15 124 -2 76 -1 80 39 139 22
34 45 81 52 105 l11 43 14 -50 c14 -50 14 -51 -15 -88z m-712 -368 c46 -17
231 -35 277 -28 68 11 131 28 179 49 44 19 52 20 57 7 3 -8 6 -87 6 -176 0
-156 -1 -164 -26 -212 -43 -81 -185 -250 -197 -234 -1 2 -13 40 -25 84 -13 44
-47 130 -77 191 -48 98 -63 119 -131 183 -96 90 -133 111 -273 160 l-112 39
63 34 62 35 76 -59 c42 -31 96 -65 121 -73z m-402 56 c-40 -27 -231 -171 -286
-218 -43 -37 -53 -41 -53 -25 0 19 102 123 172 176 51 38 169 96 182 89 5 -4
-1 -13 -15 -22z m208 -66 c117 -48 154 -72 243 -152 51 -47 70 -73 115 -167
30 -61 66 -154 81 -206 l27 -94 -58 -54 c-61 -54 -156 -122 -173 -122 -5 0
-15 21 -22 47 -6 26 -25 79 -41 118 -114 267 -329 459 -543 483 l-59 7 94 71
c150 114 170 125 203 118 16 -3 76 -26 133 -49z m1091 -58 c64 -31 72 -32 192
-32 114 1 133 3 215 32 49 18 91 31 92 29 2 -2 -23 -20 -54 -41 -140 -93 -229
-221 -274 -394 -16 -58 -28 -132 -29 -163 0 -32 -3 -58 -7 -58 -11 0 -195 112
-273 166 -118 82 -114 74 -107 211 5 109 34 277 57 338 l10 26 56 -41 c30 -23
86 -56 122 -73z m612 72 c0 -5 -6 -9 -12 -9 -7 0 -24 -3 -38 -6 l-25 -6 23 21
c22 19 52 19 52 0z m192 -55 c115 -78 220 -175 206 -189 -2 -2 -37 25 -78 61
-41 36 -112 87 -158 115 -45 28 -80 55 -77 60 10 16 22 11 107 -47z m-73 -21
c36 -25 94 -67 128 -92 l62 -46 -62 -20 c-34 -11 -82 -32 -107 -47 -61 -36
-154 -121 -188 -171 -48 -71 -92 -237 -92 -349 l0 -47 -77 29 c-94 34 -230 97
-237 109 -10 15 41 233 74 319 18 45 52 109 75 140 81 107 251 220 334 222 13
0 53 -21 90 -47z m-2056 -162 c138 -66 266 -199 345 -356 25 -50 92 -226 92
-241 0 -3 -46 -27 -102 -53 -174 -82 -388 -143 -549 -157 -41 -3 -89 -10 -107
-16 -40 -12 -244 8 -283 28 -31 15 -39 47 -39 143 2 221 70 361 284 579 l121
124 76 -4 c63 -4 89 -11 162 -47z m2303 -26 c36 -27 160 -171 216 -250 81
-113 182 -365 164 -411 -14 -37 -201 -62 -332 -45 -125 17 -372 68 -457 94
l-72 23 3 39 c9 115 55 289 93 352 23 38 107 115 164 151 41 26 149 71 174 71
8 1 29 -10 47 -24z m-1365 -170 c-19 -70 -218 -284 -351 -377 -262 -184 -643
-298 -994 -298 -108 0 -139 4 -173 20 -24 10 -43 24 -43 30 0 13 13 13 27 -1
28 -28 382 -17 558 17 208 42 434 143 605 272 149 112 216 180 349 352 29 38
36 33 22 -15z m298 -170 c82 -51 347 -183 462 -231 138 -57 309 -110 392 -123
228 -36 304 -43 406 -39 71 4 118 11 138 22 43 22 55 20 51 -6 -3 -20 -13 -25
-68 -35 -274 -51 -768 61 -1179 267 -150 74 -232 125 -313 193 -69 58 -61 78
10 24 31 -24 77 -56 101 -72z"/>
                <path d="M4140 6229 c0 -120 106 -499 140 -499 5 0 22 19 38 43 39 56 133 148
204 200 32 23 58 50 58 59 0 10 -25 32 -60 53 -72 44 -314 161 -352 170 -26 7
-28 5 -28 -26z m55 1 c6 -4 75 -42 155 -85 80 -43 158 -86 173 -97 l28 -20
-63 -47 c-72 -55 -171 -158 -194 -203 -14 -27 -18 -29 -25 -15 -11 19 -103
381 -114 445 -6 38 -5 41 12 35 10 -3 23 -9 28 -13z"/>
                <path d="M4703 5796 c-101 -33 -189 -119 -222 -218 -22 -64 -27 -180 -11 -243
4 -17 5 8 3 55 -4 70 -1 97 17 149 65 193 211 274 436 241 170 -24 279 -73
454 -206 19 -14 10 -3 -20 26 -78 73 -180 133 -289 170 -79 27 -113 33 -210
36 -81 3 -129 0 -158 -10z"/>
                <path d="M5686 3173 c-8 -26 -26 -219 -25 -262 2 -57 26 75 35 187 6 86 3 116
-10 75z"/>
                <path d="M5004 5264 c-51 -122 -1 -394 77 -419 33 -11 69 20 68 58 l-1 32 -9
-32 c-12 -42 -46 -54 -70 -24 -42 52 -63 131 -63 246 -1 155 27 197 73 114 31
-54 49 -126 57 -221 4 -43 11 -78 17 -78 16 0 1 137 -23 218 -41 134 -95 180
-126 106z"/>
                <path d="M5064 5173 c5 -15 1 -28 -15 -44 -18 -18 -21 -29 -16 -70 11 -90 58
-143 73 -82 8 30 -22 192 -38 208 -7 7 -8 3 -4 -12z"/>
                <path d="M4885 4707 c-52 -51 -60 -96 -25 -140 40 -51 157 -71 235 -41 22 9
72 20 110 25 106 14 109 22 10 30 -111 8 -192 38 -247 90 -33 31 -39 41 -29
53 9 10 9 16 1 21 -6 4 -31 -13 -55 -38z m167 -123 c64 -20 65 -37 2 -47 -56
-9 -97 2 -91 24 6 23 -9 25 -21 3 -7 -13 -13 -13 -35 -3 -27 12 -35 33 -17 44
16 10 12 28 -5 21 -20 -7 -20 23 0 51 14 20 15 20 62 -27 35 -34 64 -53 105
-66z"/>
                <path d="M4725 2783 c9 -10 27 -32 41 -50 28 -36 67 -48 124 -38 54 9 42 22
-26 27 -50 4 -61 9 -91 41 -18 21 -40 37 -48 37 -13 0 -13 -2 0 -17z"/>
            </g>
        </svg>
